<svg id="visual" viewBox="0 0 900 600" width="900" height="600" xmlns="http://www.w3.org/2000/svg" xmlns:xlink="http://www.w3.org/1999/xlink" version="1.1"><rect x="0" y="0" width="900" height="600" fill="#002233"></rect><path d="M0 63L37.5 76.8C75 90.7 150 118.3 225 136.7C300 155 375 164 450 144.5C525 125 600 77 675 62.7C750 48.3 825 67.7 862.5 77.3L900 87L900 0L862.5 0C825 0 750 0 675 0C600 0 525 0 450 0C375 0 300 0 225 0C150 0 75 0 37.5 0L0 0Z" fill="#060606" stroke-linecap="round" stroke-linejoin="miter"></path></svg>